<?xml version="1.0" encoding="UTF-8"?>
<svg id="Layer_2" data-name="Layer 2" xmlns="http://www.w3.org/2000/svg" viewBox="0 0 128.46 41.08">
  <defs>
    <style>
      .cls-1 {
        fill: #005288;
      }
    </style>
  </defs>
  <g id="Layer_1-2" data-name="Layer 1">
    <g>
      <path class="cls-1" d="M10.82,17.13c1.92-3.72,3.79-7.17,5.67-11.54h.08c.49,4.37,1.03,7.82,1.52,11.54h-7.27ZM15.9,0L0,28.37h4.66l4.12-7.75h9.48l1.12,7.75h6.04L20.37,0h-4.47Z"/>
      <path class="cls-1" d="M52.2,12.93h.07l1.21-1.45c.7-.78,1.99-2.27,3.44-2.27,1.06,0,2.08.59,2.88,1.67l-2.37,3.43c-.7-.41-1.16-.64-2.11-.64-1.63,0-3.46,1.38-4.17,5.44l-1.63,9.26h-4.69l3.3-18.71h4.66l-.58,3.27Z"/>
      <path class="cls-1" d="M66.03,9.66l-3.3,18.71h-4.69l3.3-18.71h4.69ZM62.42,4.11c.2-1.14,1.31-2.31,2.57-2.31s2.11,1.14,1.9,2.31c-.23,1.29-1.32,2.52-2.7,2.52s-2.01-1.23-1.78-2.52Z"/>
      <path class="cls-1" d="M65.69,28.37L70.53.9h4.69l-4.85,27.46h-4.69Z"/>
      <path class="cls-1" d="M84.9,17.52c-.62,5.5-3.48,7.97-5.35,7.97-1.13,0-1.91-1.12-1.62-2.77.37-2.13,1.79-3.55,4.21-4.3l2.76-.9ZM83.4,25.64c-.18,1.01-.26,2.09-.02,2.73h4.98c-.33-1.31-.2-3.07.06-4.56l1.34-7.63c1.03-5.84-2.76-6.96-6.01-6.96-2.43,0-4.69.64-7.21,2.54l1.1,2.36c1.43-1.12,2.98-1.91,4.99-1.91,1.51,0,2.76,1.08,2.71,2.81l-4.38,1.31c-4.31,1.24-7.1,3.25-7.73,6.81-.61,3.44,1.29,5.69,4.04,5.69,1.62,0,3.41-1.16,4.9-2.25l1.22-.94Z"/>
      <path class="cls-1" d="M98.57,9.66l-3.3,18.71h-4.69l3.3-18.71h4.69ZM94.97,4.11c.2-1.14,1.31-2.31,2.58-2.31s2.11,1.14,1.9,2.31c-.23,1.29-1.32,2.52-2.7,2.52s-2.01-1.23-1.78-2.52Z"/>
      <path class="cls-1" d="M105.5,12.93h.07l1.21-1.45c.7-.78,1.99-2.27,3.44-2.27,1.06,0,2.08.59,2.88,1.67l-2.37,3.43c-.71-.41-1.16-.64-2.11-.64-1.62,0-3.46,1.38-4.17,5.44l-1.63,9.26h-4.69l3.3-18.71h4.66l-.58,3.27Z"/>
      <path class="cls-1" d="M116.57,16.79c.41-2.52,2.01-4.81,4.69-4.81,2.32,0,2.93,1.95,2.25,4.81h-6.94ZM127.45,19.49c1.34-5.6-.12-10.28-5.62-10.28-5.04,0-9.65,3.67-10.67,9.45-1.08,6.15,2.21,10.15,7.53,10.15,2.01,0,4.62-.6,7.28-2.1l-.88-2.61c-1.31.86-3.26,1.49-4.99,1.49-2.93,0-4.79-2.61-4.07-6.11h11.42Z"/>
      <path class="cls-1" d="M36.99,12.21c2.68,0,3.45,3.22,2.88,6.44-.58,3.29-2.32,7.19-5.46,7.19-2.54,0-3.87-2.66-3.18-6.59.76-4.3,2.79-7.04,5.75-7.04ZM22.74,38.52c1.61-.29,10.4-1.96,21.74-1.96,14.47,0,30.86,4.52,45.89,4.52,21.36,0,38.09-9.14,38.09-9.14,0,0-13.11,4.96-23.85,5.74-14.16,1.04-20.98-.65-35.94-3.06-12.26-1.98-26.9-3.76-40.3.88l1.67-9.45c1.01,1.64,2.65,2.77,4.8,2.77,5.05,0,9.15-5.28,10.02-10.21.73-4.12-.6-9.39-6.14-9.39-2.12,0-4.61,1.12-6.18,3.03h-.07l.45-2.58h-4.69l-5.5,28.86Z"/>
    </g>
  </g>
</svg>